<?xml version="1.0" standalone="no"?><!DOCTYPE svg PUBLIC "-//W3C//DTD SVG 1.1//EN" "http://www.w3.org/Graphics/SVG/1.1/DTD/svg11.dtd"><svg class="icon" width="128px" height="128.00px" viewBox="0 0 1024 1024" version="1.1" xmlns="http://www.w3.org/2000/svg"><path d="M646.788107 75.155963c12.029537 4.009846 23.82994 8.363392 35.401209 13.289774a29.077109 29.077109 0 0 0 10.196464 2.176774 27.690848 27.690848 0 0 0 11.342135-53.159096c-13.06064-5.499217-26.235847-10.425599-39.640188-14.893713a27.679391 27.679391 0 0 0-17.29962 52.586261zM903.189092 286.302976a27.667935 27.667935 0 0 0 48.347281-26.923249c-6.874021-12.373238-14.20631-24.402775-22.111434-36.08861a27.656478 27.656478 0 1 0-45.941374 30.818527c6.988588 10.425599 13.518908 21.194898 19.705527 32.193332zM780.144115 145.041844c9.96733 7.561423 19.705527 15.581114 29.100023 23.944506a27.690848 27.690848 0 0 0 17.872454 6.988588 28.27514 28.27514 0 0 0 21.194899-9.050794 27.702305 27.702305 0 0 0-2.176774-39.067353c-10.425599-9.394495-21.424032-18.44529-32.6516-26.923249a27.645021 27.645021 0 1 0-33.339002 44.108302zM103.740446 707.680465a27.667935 27.667935 0 1 0-50.867756 21.767734c5.499217 13.06064 11.571269 25.777579 18.216156 38.265383A27.587738 27.587738 0 0 0 96.63729 782.492728a26.877422 26.877422 0 0 0 11.800403-3.322444 27.645021 27.645021 0 0 0 11.571269-37.348847c-5.957485-11.227568-11.342135-22.569702-16.268516-34.140972zM211.089741 861.658537c-9.165361-8.592526-17.872455-17.528754-26.350414-26.923249a27.667935 27.667935 0 0 0-41.129559 37.005146c9.394495 10.425599 19.247259 20.622063 29.55829 30.245693a27.496084 27.496084 0 0 0 20.049228 7.446856 27.862699 27.862699 0 0 0 19.018125-8.707094 27.564824 27.564824 0 0 0-1.14567-39.067352zM179.125543 511.541732c0-133.814276 84.092191-256.057284 208.970239-303.83173a26.350414 26.350414 0 0 0-18.788991-49.263817c-145.270978 55.67957-242.882077 197.628105-242.882076 353.210114a26.350414 26.350414 0 1 0 52.700828-0.114567zM336.311491 945.063325c-11.456702-5.155516-22.798836-10.7693-33.797271-16.841351a27.645021 27.645021 0 0 0-26.808682 48.347281c12.258671 6.759454 24.97561 13.06064 37.807116 18.903558a28.744865 28.744865 0 0 0 12.373238 2.405907 27.633565 27.633565 0 0 0 10.425599-52.815395zM1020.963986 512.572835a515.253703 515.253703 0 0 0-14.664579-122.357574 26.350414 26.350414 0 0 0-51.211456 12.487805 464.053703 464.053703 0 0 1 13.175207 109.755202c0 251.932871-204.272992 457.236966-455.862162 458.840904l46.85791-47.774446a26.350414 26.350414 0 0 0-37.577982-36.89058l-91.653613 93.486686a26.350414 26.350414 0 0 0-0.343701 36.546879 509.685746 509.685746 0 0 0 77.56187 7.217722c0.687402 0 1.374804 0.114567 2.176774 0.114567h2.978742c280.689192-1.603938 508.562989-230.508839 508.56299-511.427165zM515.72344 261.900201c-125.794585 0-228.102931 102.308346-228.102932 228.102932a226.292772 226.292772 0 0 0 19.018125 91.195345 27.278407 27.278407 0 0 0 2.864176 5.040949l184.911165 252.620273a26.350414 26.350414 0 0 0 21.309466 10.7693 26.648288 26.648288 0 0 0 21.309465-10.7693l185.827702-254.682479a29.787424 29.787424 0 0 0 2.978742-5.270083 226.51045 226.51045 0 0 0 17.987022-88.789438c0-125.794585-102.308346-228.217498-228.102931-228.217499z m162.685164 293.635266l-162.685164 223.061982-161.883196-220.999776a174.244977 174.244977 0 0 1-13.404341-67.479973c0-96.694563 78.707541-175.402103 175.402104-175.402104s175.402103 78.707541 175.402103 175.402104a176.948758 176.948758 0 0 1-12.831506 65.417767z" fill="#0066EB" /><path d="M65.93333 621.296934a463.99642 463.99642 0 0 1-13.175207-109.755202C52.758123 259.608861 256.916548 54.304766 508.620284 52.700828l-46.85791 47.774446a26.350414 26.350414 0 1 0 37.577982 36.89058l91.653614-93.486686a26.281674 26.281674 0 0 0-0.343701-37.234281l-0.458268-0.458268A527.867532 527.867532 0 0 0 512.400996 0h-3.780712C380.419792 0.687402 263.217734 48.920116 173.626326 127.742224 68.912072 221.916312 3.036037 358.36563 3.036037 510.166928a513.821616 513.821616 0 0 0 18.101589 135.532781 26.510808 26.510808 0 0 0 19.132692 8.248825 23.188364 23.188364 0 0 0 6.301186-0.801969 26.419154 26.419154 0 0 0 19.361826-31.849631zM834.90715 512.458268c0 133.928843-83.977624 256.057284-208.97024 303.946297a26.350414 26.350414 0 0 0 18.788991 49.263817c145.270978-55.67957 242.882077-197.628105 242.882076-353.210114a26.350414 26.350414 0 0 0-52.700827 0z" fill="#0066EB" /><path d="M515.72344 602.164243a116.056388 116.056388 0 1 1 116.056388-116.056389 116.125129 116.125129 0 0 1-116.056388 116.056389z m0-179.411949a63.355561 63.355561 0 1 0 63.35556 63.35556 63.412844 63.412844 0 0 0-63.35556-63.35556z" fill="#00D929" /></svg>