<?xml version="1.0" standalone="no"?><!DOCTYPE svg PUBLIC "-//W3C//DTD SVG 1.1//EN" "http://www.w3.org/Graphics/SVG/1.1/DTD/svg11.dtd"><svg class="icon" width="128px" height="128.00px" viewBox="0 0 1024 1024" version="1.1" xmlns="http://www.w3.org/2000/svg"><path d="M711.812137 1024H92.674262A61.068589 61.068589 0 0 1 31.724715 963.050453V60.949547A61.068589 61.068589 0 0 1 92.674262 0h838.651476a61.068589 61.068589 0 0 1 60.949547 60.949547v682.587305c0 154.635666-125.827482 280.463148-280.463148 280.463148zM104.816554 950.789119h606.995583c114.2804 0 207.252267-92.971867 207.252267-207.252267V73.210881h-814.24785z" fill="#0066EB" /><path d="M345.757731 490.810509V235.703325a54.664125 54.664125 0 0 1 98.685887-32.379447L599.555452 414.147408V220.346896a39.283887 39.283887 0 0 1 39.283888-39.283887h0.119042a39.283887 39.283887 0 0 1 39.283887 39.283887v253.321553a56.425947 56.425947 0 0 1-101.780981 33.569868l-152.135782-204.752383v188.324575a39.283887 39.283887 0 0 1-39.283888 39.283888h-0.119042a39.283887 39.283887 0 0 1-39.164845-39.283888z" fill="#00D929" /><path d="M766.214369 682.468263H257.666589a36.54592 36.54592 0 1 1 0-73.091839H766.214369a36.54592 36.54592 0 0 1 0 73.091839zM562.29528 810.319461H257.666589a36.54592 36.54592 0 0 1 0-73.09184h304.628691a36.54592 36.54592 0 0 1 0 73.09184z" fill="#0066EB" /></svg>