<?xml version="1.0" standalone="no"?><!DOCTYPE svg PUBLIC "-//W3C//DTD SVG 1.1//EN" "http://www.w3.org/Graphics/SVG/1.1/DTD/svg11.dtd"><svg class="icon" width="128px" height="119.26px" viewBox="0 0 1099 1024" version="1.1" xmlns="http://www.w3.org/2000/svg"><path d="M31.372401 582.363813L497.961154 790.972107c41.183846 19.380634 59.110932 19.380634 103.686389 0l466.588753-208.584068c23.135631-10.780477 31.372401-61.048996 31.372401-87.939625-30.039982 15.019991-72.556247 36.217559-73.283021 36.338688L549.683219 749.279519 73.283021 530.884005c1.695805 0.969032-42.152878-18.65386-73.283021-36.338688C0 520.854527 6.540964 569.306111 31.372401 582.363813" fill="#0066EB" /><path d="M549.683219 967.917292L73.283021 749.279519c1.695805 0.969032-42.152878-18.65386-73.283021-36.338688 0 26.406113 6.783222 74.857697 31.372401 87.939625l466.588753 208.584069c41.183846 19.380634 59.110932 19.380634 103.686389 0l466.346495-208.584069c23.135631-10.780477 31.372401-61.048996 31.372401-87.939625-30.039982 15.019991-72.313989 36.217559-73.283021 36.338688l-476.400199 218.637773" fill="#00D929" /><path d="M1067.994038 260.766425L601.647543 15.746765c-36.580946-21.560955-62.502543-20.349665-103.686389 0L31.372401 260.766425c-35.611914 22.651115-36.580946 83.700111 0 102.959615l466.588753 208.705198c41.183846 19.259505 59.110932 19.259505 103.686389 0l466.588753-208.705198c34.158367-15.989023 35.369656-83.457853-0.242258-102.959615z m-518.310819 251.221462L73.283021 312.367361l476.521327-254.855331 476.521328 254.855331-476.642457 199.620526z" fill="#0066EB" /></svg>