<?xml version="1.0" standalone="no"?><!DOCTYPE svg PUBLIC "-//W3C//DTD SVG 1.1//EN" "http://www.w3.org/Graphics/SVG/1.1/DTD/svg11.dtd"><svg class="icon" width="128px" height="128.00px" viewBox="0 0 1024 1024" version="1.1" xmlns="http://www.w3.org/2000/svg"><path d="M589.515235 693.480668c-16.444467 8.00534-22.924981 27.302285-14.551579 43.102644A33.690783 33.690783 0 0 0 604.750357 753.974223a34.794968 34.794968 0 0 0 15.287702-3.496585c90.043646-44.101669 193.482105-110.996868 193.482105-238.490783 0-44.496021-12.671836-81.591374-33.506752-113.494429l-10.055969-14.459563c-57.062696-73.901515-161.026958-117.595687-256.407497-157.490937-72.297818-30.233633-141.874608-59.599692-186.65982-98.495918h370.059666c-23.661104 20.295969-55.905931 40.000411-99.363492 60.467265C581.089253 196.295148 574.135517 215.486932 582.403759 231.353017a33.651348 33.651348 0 0 0 30.049602 17.798408 34.847548 34.847548 0 0 0 14.7619-3.338845c92.13371-43.29982 186.265469-102.531451 186.265468-213.791219C813.480729 14.301823 798.508508 0 779.973977 0s-33.506752 14.301823-33.506752 31.995071A111.982747 111.982747 0 0 1 741.458958 64.003286H282.223219a110.260745 110.260745 0 0 1-4.70593-31.99507C277.517289 14.301823 262.545068 0 244.010537 0S210.503784 14.301823 210.503784 31.995071c0 137.405289 140.402362 196.203132 276.203954 253.094942 72.297818 30.233633 142.084929 59.691707 191.18172 98.903414H346.818033c21.465879-16.99656 47.637689-33.493607 80.184853-49.793478 16.339307-8.202516 22.71466-27.604621 14.130937-43.19466s-28.787677-21.59733-45.232144-13.499974c-50.463877 25.304236-105.160462 58.403492-141.966624 106.474967l-9.950809 13.999487C223.543682 429.383312 210.503784 466.781001 210.503784 511.986855c0 159.896483 159.357535 226.594506 299.970219 285.49751C561.568842 818.937099 611.322886 839.772015 652.072565 863.972067H372.582347c15.918665-9.398716 33.296431-18.902593 53.710706-28.498485 16.536483-7.795019 23.450783-26.999949 15.182541-42.800309s-28.275019-22.346598-44.916662-14.459563C304.530383 821.474095 210.398624 880.71887 210.398624 991.965494 210.398624 1009.671887 225.370845 1024 243.905376 1024S277.438418 1009.671887 277.438418 991.965494a109.932118 109.932118 0 0 1 19.717587-63.990141h429.212426c12.882157 18.902593 20.203954 39.89525 20.203954 64.003286 0 17.693248 14.972221 31.995071 33.506752 31.995071s33.506752-14.301823 33.506753-31.995071c0-137.392144-140.402362-196.189987-276.203954-253.094942-90.569448-37.897202-177.681746-74.493042-224.372991-130.898485h398.597586c-25.448832 30.102182-64.910295 57.601643-122.078151 85.442875zM281.171615 543.981926a150.09027 150.09027 0 0 1-3.667471-31.995071 142.545006 142.545006 0 0 1 14.880205-64.003286h439.426136a143.596611 143.596611 0 0 1 14.65674 64.003286 151.628241 151.628241 0 0 1-3.562311 31.995071H281.171615z" fill="#0066EB" /><path d="M554.378495 411.88724m-63.227727 0a63.227728 63.227728 0 1 0 126.455455 0 63.227728 63.227728 0 1 0-126.455455 0Z" fill="#00D929" /><path d="M427.094901 570.942439m-63.227728 0a63.227728 63.227728 0 1 0 126.455456 0 63.227728 63.227728 0 1 0-126.455456 0Z" fill="#00D929" /><path d="M524.144863 95.091348m-63.227728 0a63.227728 63.227728 0 1 0 126.455455 0 63.227728 63.227728 0 1 0-126.455455 0Z" fill="#00D929" /><path d="M524.144863 896.939872m-63.227728 0a63.227728 63.227728 0 1 0 126.455455 0 63.227728 63.227728 0 1 0-126.455455 0Z" fill="#00D929" /></svg>