<?xml version="1.0" standalone="no"?><!DOCTYPE svg PUBLIC "-//W3C//DTD SVG 1.1//EN" "http://www.w3.org/Graphics/SVG/1.1/DTD/svg11.dtd"><svg class="icon" width="128px" height="125.19px" viewBox="0 0 1047 1024" version="1.1" xmlns="http://www.w3.org/2000/svg"><path d="M554.713875 389.976543V31.157336a31.157336 31.157336 0 0 0-62.314672 0v358.705908c-55.06351 14.049126-96.304492 63.560965-96.304492 123.043151s41.014384 109.107325 96.304492 123.043151v356.779819a31.157336 31.157336 0 1 0 62.314672 0V635.949546c55.176809-14.049126 96.304492-63.560965 96.304492-123.043151s-41.240983-109.107325-96.304492-122.929852z m0 179.126356c-9.40385 5.211773-19.600797 9.063952-31.157336 9.063952s-21.753485-3.85218-31.157336-9.063952c-20.053994-11.103341-33.989821-31.723833-33.98982-56.196504s14.162425-44.979863 33.98982-56.196503c9.40385-5.211773 19.600797-9.063952 31.157336-9.063953s21.753485 3.85218 31.157336 9.063953c20.053994 11.103341 33.989821 31.723833 33.989821 56.196503s-13.935827 45.093162-33.989821 56.196504z m396.20801-394.848418V31.157336a31.157336 31.157336 0 0 0-62.314671 0v143.210444c-55.176809 14.049126-96.304492 63.560965-96.304492 123.043152s41.014384 109.107325 96.304492 123.043151v572.388581a31.157336 31.157336 0 0 0 62.314671 0V420.340783c55.176809-14.049126 96.304492-63.560965 96.304493-123.043151s-41.240983-108.994025-96.304493-123.043151z m0 179.352954c-9.40385 5.211773-19.600797 9.063952-31.157335 9.063952s-21.753485-3.85218-31.157336-9.063952c-20.053994-11.103341-33.989821-31.723833-33.989821-56.196503s14.162425-44.979863 33.989821-56.196504c9.40385-5.211773 19.600797-9.063952 31.157336-9.063952s21.753485 3.85218 31.157335 9.063952c20.053994 11.103341 33.989821 31.723833 33.989821 56.196504s-14.049126 44.866563-33.989821 56.196503z" fill="#0066EB" /><path d="M158.505864 605.472007V31.157336a31.157336 31.157336 0 1 0-62.314671 0v574.314671C41.127683 619.521133 0 669.146271 0 728.628458s41.014384 109.107325 96.304492 123.043151v141.171055a31.157336 31.157336 0 1 0 62.314672 0V851.671609c55.176809-14.049126 96.304492-63.560965 96.304492-123.043151s-41.240983-109.107325-96.417792-123.156451z m0 179.239655c-9.40385 5.211773-19.600797 9.063952-31.157336 9.063952s-21.753485-3.85218-31.157335-9.063952c-20.053994-11.103341-33.989821-31.723833-33.989821-56.196504s14.162425-44.979863 33.989821-56.196503c9.40385-5.211773 19.600797-9.063952 31.157335-9.063953s21.753485 3.85218 31.157336 9.063953c20.053994 11.103341 33.989821 31.723833 33.989821 56.196503 0.226599 24.472671-14.049126 45.093162-33.989821 56.196504z" fill="#00D929" /></svg>