<svg class="svg-product" version="1.1" x="0px" y="0px" viewBox="0 0 244 243.1">
    <g class="svg-illustration-shadow animation-element" data-animation-shadow="">
        <path class="high-frequency__shadow" d="M122,117.5a9.07,9.07,0,0,0-4.3,1c-1.1.6-102.3,58.7-103.4,59.3a3,3,0,0,0-1.8,2.5h0a3.13,3.13,0,0,0,1.8,2.5c1.1.6,102.3,58.7,103.4,59.3a9.33,9.33,0,0,0,8.6,0c1.1-.6,102.3-58.7,103.4-59.3a3,3,0,0,0,1.8-2.5h0a3.13,3.13,0,0,0-1.8-2.5c-1.1-.6-102.3-58.7-103.4-59.3a10.43,10.43,0,0,0-4.3-1"></path>
    </g>
    <g class="svg-illustration-bottom animation-element" data-animation-bottom="">
        <path class="high-frequency-st1" d="M231,107.9C231,107.9,231,108.1,231,107.9c0,0.1,0,0.1,0,0.2v29c-0.1,1.1-0.8,2-1.8,2.5c-1.1,0.6-102.3,58.7-103.4,59.3c-2.7,1.4-5.9,1.4-8.6,0c-1.1-0.6-102.3-58.7-103.4-59.3c-1-0.4-1.7-1.4-1.8-2.5V108l0,0l0,0v-0.5h0.1c0.3-0.9,0.9-1.6,1.7-2c1.1-0.6,102.3-59.6,103.4-60.2c2.7-1.4,5.9-1.4,8.6,0c1.1,0.6,102.3,59.6,103.4,60.2c0.8,0.4,1.4,1.1,1.7,2h0.1V107.9z"></path>
        <path class="high-frequency-st2" d="M229.2,110.1c-1.1,0.6-102.3,59.1-103.4,59.8c-2.7,1.4-5.9,1.4-8.6,0c-1.1-0.6-102.3-59.1-103.4-59.8c-1.4-0.5-2.1-2-1.7-3.3c0.3-0.8,0.9-1.4,1.7-1.7c1.1-0.6,102.3-59.1,103.4-59.8c2.7-1.4,5.9-1.4,8.6,0c1.1,0.6,102.3,59.1,103.4,59.8c1.4,0.5,2.1,2,1.6,3.3C230.6,109.1,230,109.8,229.2,110.1z M222,104.9c-1-0.6-96-55.9-97.1-56.5c-2.5-1.3-5.6-1.3-8.1,0c-1,0.6-96,55.9-97.1,56.5c-1.3,0.5-2,1.9-1.5,3.2c0.3,0.7,0.8,1.3,1.5,1.5c1,0.6,96.1,55.9,97.1,56.5c2.5,1.3,5.6,1.3,8.1,0c1-0.6,96.1-55.9,97.1-56.5c1.3-0.4,2-1.9,1.5-3.2
        C223.3,105.8,222.7,105.3,222,104.9z"></path>
        <path class="high-frequency-st3" d="M116.9,165.9c-0.8-0.4-50.8-29.5-78.8-45.7c30.3-17.5,78.3-45.2,79-45.7c2.7-1.4,5.9-1.4,8.6,0c0.8,0.4,48.1,27.8,78.5,45.4c-27.9,16.2-78.5,45.6-79.3,46C122.5,167.2,119.5,167.2,116.9,165.9z"></path>
        <g>
            <path class="high-frequency-st5" d="M25,127.8l5.3,3.2"></path>
            <path class="high-frequency-st6" d="M25,133.1l5.3,3.2"></path>
            <path class="high-frequency-st6" d="M34.6,133.1l5.3,3.2"></path>
            <path class="high-frequency-st5" d="M34.6,138.5l5.3,3.2"></path>
        </g>
        <g>
            <path class="high-frequency-st7" d="M210,132.5v7"></path>
            <path class="high-frequency-st7" d="M214,130v7"></path>
            <path class="high-frequency-st7" d="M218,127.5v7.5"></path>
            <path class="high-frequency-st7" d="M222,125.4v7"></path>
        </g>
        <path class="high-frequency-st8" d="M69.5,156.8l38.6,22.1"></path>
    </g>
    <g class="svg-illustration-light">
        <defs>
            <path id="high-frequency-clip-3" d="M223.5,106.4c-0.1-0.2-0.2-0.5-0.4-0.7V68.1H18.2v38.3c-0.2,0.5-0.2,1.1,0,1.7c0.3,0.7,0.8,1.3,1.5,1.5
                c1,0.6,96.1,55.9,97.1,56.5c2.5,1.3,5.6,1.3,8.1,0c1-0.6,96.1-55.9,97.1-56.5c0.3-0.1,0.6-0.3,0.9-0.5h0.2v-0.2
                C223.6,108.2,223.8,107.3,223.5,106.4z"></path>
            <path id="high-frequency-clip-4" d="M223.5,106.4c-0.1-0.2-0.2-0.5-0.4-0.7V68.1H18.2v38.3c-0.2,0.5-0.2,1.1,0,1.7c0.3,0.7,0.8,1.3,1.5,1.5
                c1,0.6,96.1,55.9,97.1,56.5c2.5,1.3,5.6,1.3,8.1,0c1-0.6,96.1-55.9,97.1-56.5c0.3-0.1,0.6-0.3,0.9-0.5h0.2v-0.2
                C223.6,108.2,223.8,107.3,223.5,106.4z"></path>
        </defs>
        <clipPath id="high-frequency-clip">
            <use xlink:href="#high-frequency-clip-3" style="overflow:visible;"></use>
        </clipPath>
        <clipPath id="high-frequency-clip-1" class="high-frequency-st21">
            <use xlink:href="#high-frequency-clip-4" style="overflow:visible;"></use>
        </clipPath>
        <g class="high-frequency-st21" data-animation-lights="">
            <rect x="37" y="85.1" class="high-frequency-st22 animation-element" width="0.5" height="12"></rect>
            <rect x="53" y="115.1" class="high-frequency-st23 animation-element" width="0.5" height="12"></rect>
            <rect x="113" y="146.1" class="high-frequency-st24 animation-element" width="0.5" height="15"></rect>
            <rect x="83" y="121.1" class="high-frequency-st25 animation-element" width="0.5" height="14"></rect>
            <rect x="135" y="126.1" class="high-frequency-st26 animation-element" width="0.5" height="12"></rect>
            <rect x="170" y="105.1" class="high-frequency-st27 animation-element" width="0.5" height="12"></rect>
            <rect x="202" y="102.1" class="high-frequency-st28 animation-element" width="0.5" height="12"></rect>
            <rect x="167" y="134.1" class="high-frequency-st29 animation-element" width="0.5" height="12"></rect>
        </g>
        <path class="high-frequency-st30 animation-element" data-animation-main-light="" d="M223.8,106.2c-0.1-0.2-0.2-0.5-0.4-0.7V67.9H18.5v38.3c-0.2,0.5-0.2,1.1,0,1.7c0.3,0.7,0.8,1.3,1.5,1.5
            c1,0.6,96.1,55.9,97.1,56.5c2.5,1.3,5.6,1.3,8.1,0c1-0.6,96.1-55.9,97.1-56.5c0.3-0.1,0.6-0.3,0.9-0.5h0.2v-0.2
            C224,108,224.2,107,223.8,106.2z"></path>
    </g>
    <g class="svg-illustration-top">
        <path class="high-frequency-st9" d="M232,64.1L12,63.7c0,0,0,3.6,0,5.1l0,0c0.1,1.1,0.8,2.1,1.8,2.5c1.1,0.6,102.8,59.9,103.9,60.5c2.7,1.4,5.9,1.4,8.6,0c1.1-0.6,102.8-59.9,103.9-60.5c1-0.5,1.7-1.4,1.8-2.5l0,0C231.9,67.7,232,64.1,232,64.1"></path>
        <path class="high-frequency-st10" d="M122-0.1c-1.5,0-3,0.3-4.3,1c-1.1,0.7-102.8,60-103.9,60.6c-1,0.5-1.7,1.4-1.8,2.5l0,0c0.1,1.1,0.8,2.1,1.8,2.5c1.1,0.6,102.8,59.9,103.9,60.5c2.7,1.4,5.9,1.4,8.6,0c1.1-0.6,102.8-59.9,103.9-60.5c1-0.5,1.7-1.4,1.8-2.5l0,0c-0.1-1.1-0.8-2.1-1.8-2.5C229.1,60.8,127.4,1.6,126.3,1C125,0.2,123.5-0.1,122-0.1"></path>
        <path class="high-frequency-st11" d="M203.4,64.6l-38.8,23c-0.6,0.4-1.7,0.3-2.4-0.1l-15.1-8.9l17.5-10.2c1.9-1,2.8-2.4,2.8-3.8c0-1.4-0.9-2.8-2.8-3.9l-18.5-10.7l16.3-9.6c0.6-0.4,1.7-0.3,2.4,0.1l38.4,22.7C204,63.5,204,64.2,203.4,64.6z M144.4,48.9l-15.3-8.8c-4.2-2.1-9.2-2.1-13.3,0l-16.6,9.6L81.4,39.3c-0.7-0.4-0.8-1.1-0.2-1.4l38.8-23c0.6-0.4,1.7-0.3,2.4,0.1l38.4,22.7c0.7,0.4,0.8,1.1,0.2,1.4L144.4,48.9z M80.3,60.7c-1.9,1-2.8,2.4-2.8,3.9c0,1.5,0.9,2.8,2.8,3.8l16.2,9.3l-16.6,9.8c-0.6,0.4-1.7,0.3-2.4-0.1L39,64.7c-0.7-0.4-0.8-1.1-0.2-1.4l38.8-23c0.6-0.4,1.7-0.3,2.4,0.1l17.4,10.3L80.3,60.7z M116.3,87L83.1,68c-1.7-0.9-2.6-2.1-2.6-3.5c0-1.4,0.9-2.7,2.6-3.6l33.1-19c3.9-2,8.6-2,12.5,0l33.2,19c1.7,1,2.6,2.3,2.6,3.6c0,1.3-0.9,2.6-2.6,3.5l-33.1,19C124.9,89,120.2,89,116.3,87z M97.8,78.5l18.1,10.4c4.2,2.1,9.2,2.1,13.3,0l16.9-9.8l15,8.8c0.7,0.4,0.8,1.1,0.2,1.4l-37.5,22.2c-1.5,1-3.5,0.8-5,0l-37.3-22c-0.7-0.4-0.8-1.1-0.2-1.4L97.8,78.5z"></path>
        <g>
            <g>
                <path class="high-frequency-st16" d="M83,57.9l78,0v5.8c0,1.2-0.8,2.4-2.4,3.3l-30.8,17.5c-3.6,1.8-7.9,1.8-11.6,0l-1.9-1.1l-27-15.3L85.4,67c-1.6-0.9-2.5-2.1-2.5-3.3L83,57.9z"></path>
                <path class="high-frequency-st17" d="M158.6,61.2c1.6-0.9,2.4-2.1,2.4-3.3s-0.8-2.4-2.4-3.4l-30.8-17.8c-3.6-1.8-7.9-1.8-11.6,0L85.4,54.6c-1.4,0.8-2.3,1.9-2.4,3.4c0,1.3,0.8,2.4,2.4,3.3L116.3,79c3.6,1.8,7.9,1.8,11.6,0L158.6,61.2z"></path>
                <g>
                    <path class="high-frequency-st31" d="M121,57.3c-0.6-0.2-1.3-0.3-1.8,0c-0.4,0.2-0.4,0.8,0,1c0.6,0.3,1.2,0.3,1.8,0C121.4,58.1,121.6,57.5,121,57.3z M119.7,58.5l7.3,0.9l-6-2.1L119.7,58.5z"></path>
                    <path class="high-frequency-st32" d="M125.1,65.9c1.8-0.4,3.5-1,5.1-1.9c5.7-3.3,5.7-8.5,0.1-11.7s-14.8-3.2-20.5,0.1c-1.3,0.7-2.4,1.7-3.3,2.9"></path>
                    <path class="high-frequency-st32" d="M125.1,65.9c1.8-0.4,3.5-1,5.1-1.9c5.7-3.3,5.7-8.5,0.1-11.7c-3.1-1.6-6.5-2.4-10-2.4"></path>
                </g>
            </g>
            <g>
                <path class="high-frequency-st12" d="M145.1,46.8l-17.4-10c-3.6-1.8-7.9-1.8-11.6,0L98.6,47l-1.4,0.8l-12.4-7.2c-0.4-0.3-0.6-0.7-0.6-1.3v-7.1h74l0,6.1c0,0.6-0.3,0.9-0.7,1.2L145.1,46.8z M85.6,54.5c-1.5,0.8-2.5,2-2.6,3.5
c0,0.2,0,1.1,0,1.1c-0.1,0-3.1,1.8-3.2,1.8c-0.4,0.2-1.7,1.7-1.7,1.7l15.5,8.3l0,5.9l-14.4,8.4c-0.7,0.3-1.6,0.3-2.2-0.1L41.8,64.6c-0.4-0.3-0.6-0.7-0.6-1.3V58l54-11.8v2.7L85.6,54.5z M199.6,64.2l-35.4,20.9c-0.7,0.3-1.5,0.3-2.2-0.1L149,77.5v-6.1l17.8-6.7c0,0-0.9-2.8-2.8-3.9l-3.1-1.8c0-0.3,0-0.5,0-0.9c0-1.4-0.8-2.4-2.3-3.4l-11.3-6.5v-3.8L200,57.8v5.3C200.1,63.5,199.9,64,199.6,64.2L199.6,64.2z"></path>
                <path class="high-frequency-st15" d="M142.4,41.8l-13.2-7.6c-4.2-2.1-9.1-2.1-13.3,0l-14.6,8.4l-16.6-9.7c-0.7-0.4-0.7-1-0.2-1.3l35.6-20.8c0.7-0.3,1.6-0.3,2.2,0.1l35.2,20.6c0.7,0.4,0.7,1,0.2,1.3L142.4,41.8z M79.7,55.2
c-1.8,1-2.8,2.4-2.8,3.8s0.9,2.7,2.8,3.8l14,8.1l-14.5,8.5c-0.7,0.3-1.5,0.3-2.2-0.1L41.8,58.8c-0.7-0.4-0.7-1-0.2-1.3l35.4-20.7c0.7-0.3,1.5-0.3,2.2,0.1l16,9.3L79.7,55.2z M200,58.2l-35.7,20.9c-0.7,0.3-1.6,0.3-2.2-0.1L149,71.3l15.5-9c1.9-1,2.8-2.4,2.8-3.8s-0.9-2.8-2.8-3.9l-17.1-9.9l14.9-8.7c0.7-0.3,1.6-0.3,2.2,0.1l35.4,20.7C200.5,57.3,200.6,57.8,200,58.2L200,58.2z"></path>
            </g>
            <g>
                <path class="high-frequency-st12" d="M84,82.4h20.9l10.8,6.4c4.2,2.2,9.1,2.2,13.3,0l10.8-6.4l18.5,0l0.1,5.2c0,0.5-0.4,1.2-0.8,1.4L122,110.2c-0.7,0.3-1.6,0.3-2.2-0.1l-35.2-21c-0.4-0.3-0.6-0.8-0.6-1.3L84,82.4L84,82.4z"></path>
                <path class="high-frequency-st15" d="M99,73.4l16.4,9.5c4.2,2.1,9.2,2.1,13.3,0l15.5-9l13.5,7.9c0.7,0.4,0.7,1,0.2,1.3L122.2,104c-0.7,0.3-1.6,0.3-2.2-0.1L84.6,83.2c-0.7-0.4-0.7-1-0.2-1.3L99,73.4z"></path>
            </g>
        </g>
    </g>
        <style type="text/css">
            .high-frequency-st9 {
                fill: url(#svg-gradient__dark-middle-2);
            }
            .high-frequency-st12 {
                fill: url(#svg-gradient__compute-st12);
            }
            .high-frequency-st13 {
                fill: url(#svg-gradient__dark-middle-st13);
            }
            .high-frequency-st14 {
                fill: url(#svg-gradient__dark-middle-st14);
            }
            .high-frequency-st10 {
                fill: url(#svg-gradient__dark-top-dark);
            }
            .high-frequency-st11 {
                opacity: 0.7;
                fill: #1D2540;
                enable-background: new;
            }
            .high-frequency-st15 {
                fill: url(#svg-gradient__dark-top-light);
            }
            .high-frequency-st16 {
                fill: url(#svg-gradient__blue-middle-st16);
            }
            .high-frequency-st17 {
                fill: url(#svg-gradient__blue-top-light-st17);
            }
            .high-frequency-st18 {
                fill: #FFFFFF;
            }
            .high-frequency-st19 {
                display: none;
                fill: #FFFFFF;
            }
            .high-frequency-st20 {
                fill-rule: evenodd;
                clip-rule: evenodd;
                fill: #FFFFFF;
            }
            .high-frequency-st21 {
                clip-path: url(#high-frequency-clip);
            }
            .high-frequency-st22 {
                fill: url(#high-frequency-gradient);
            }
            .high-frequency-st23 {
                fill: url(#high-frequency-gradient-1);
            }
            .high-frequency-st24 {
                fill: url(#high-frequency-gradient-2);
            }
            .high-frequency-st25 {
                fill: url(#high-frequency-gradient-3);
            }
            .high-frequency-st26 {
                fill: url(#high-frequency-gradient-4);
            }
            .high-frequency-st27 {
                fill: url(#high-frequency-gradient-5);
            }
            .high-frequency-st28 {
                fill: url(#high-frequency-gradient-6);
            }
            .high-frequency-st29 {
                fill: url(#high-frequency-gradient-7);
            }
            .high-frequency-st30 {
                opacity: 0.4;
                fill: url(#high-frequency-gradient-8);
                enable-background: new;
            }
            .high-frequency-st1 {
                fill: url(#svg-gradient__gray-middle)
            }

            .high-frequency-st2 {
                fill: url(#svg-gradient__gray-top-light)
            }

            .high-frequency-st3 {
                fill: #333c5e
            }

            .high-frequency-st5,
            .high-frequency-st6,
            .high-frequency-st7,
            .high-frequency-st8 {
                fill: none;
                stroke: #142149;
                stroke-width: 2.1386;
                stroke-linecap: round;
                stroke-linejoin: round;
                enable-background: new
            }

            .high-frequency-st5,
            .high-frequency-st7,
            .high-frequency-st8 {
                opacity: .32
            }

            .high-frequency-st6 {
                opacity: .48
            }

            .high-frequency__shadow {
                opacity: .08;
                fill: url(#svg-gradient__gray-shadow);
                enable-background: new
            }
            .high-frequency-st31 {
                fill: #FFFFFF;
                stroke: #FFFFFF;
                stroke-width: 2;
                stroke-linecap: round;
                stroke-linejoin: round;
            }
            .high-frequency-st32{
                fill: none;
                stroke: #FFFFFF;
                stroke-width: 3;
                stroke-linecap: round;
                stroke-linejoin: round;
            }
        </style>
        <linearGradient id="svg-gradient__gray-middle" x1="0%" y1="0%" x2="100%" y2="0%">
            <stop offset="0" style="stop-color:#CAD1E0"></stop>
            <stop offset="0.46" style="stop-color:#BEC5D8"></stop>
            <stop offset="0.54" style="stop-color:#D4D9E6"></stop>
            <stop offset="1" style="stop-color:#E4E7F0"></stop>
        </linearGradient>
        <linearGradient id="svg-gradient__gray-top-dark" x1="0%" y1="0%" x2="100%" y2="0%">
            <stop offset="0" style="stop-color:#99A1BE"></stop>
            <stop offset="1" style="stop-color:#B3BACF"></stop>
        </linearGradient>
        <linearGradient id="svg-gradient__gray-top-light" x1="0%" y1="0%" x2="100%" y2="0%">
            <stop offset="0" style="stop-color:#EAEDF6"></stop>
            <stop offset="1" style="stop-color:#F6F8FE"></stop>
        </linearGradient>
        <linearGradient id="svg-gradient__gray-shadow" x1="122.26" y1="-395.29" x2="122.26" y2="-520.94" gradientTransform="matrix(1, 0, 0, -1, 0, -278)" gradientUnits="userSpaceOnUse">
            <stop offset="0" stop-color="#13151e" stop-opacity="0"></stop>
            <stop offset="1" stop-color="#131532"></stop>
        </linearGradient>
        <linearGradient id="svg-gradient__dark-top-dark" gradientUnits="userSpaceOnUse" x1="12" y1="419.9333" x2="232" y2="419.9333" gradientTransform="matrix(1 0 0 1 0 -356)">
            <stop offset="5.139655e-03" style="stop-color:#3F4B75"></stop>
            <stop offset="1" style="stop-color:#636F99"></stop>
        </linearGradient>
        <linearGradient id="svg-gradient__dark-top-light" gradientUnits="userSpaceOnUse" x1="41.6969" y1="400.85" x2="200.8531" y2="400.85" gradientTransform="matrix(1 0 0 1 0 -356)">
            <stop offset="0" style="stop-color:#5B6791"></stop>
            <stop offset="1" style="stop-color:#69759F"></stop>
        </linearGradient>
        <linearGradient id="svg-gradient__dark-middle" gradientUnits="userSpaceOnUse" x1="0%" y1="0%" x2="100%" y2="0%">
            <stop offset="0" stop-color="#373f6e"></stop>
            <stop offset="1" stop-color="#5a6291"></stop>
        </linearGradient>
        <linearGradient id="svg-gradient__dark-middle-2" gradientUnits="userSpaceOnUse" x1="0%" y1="0%" x2="100%" y2="0%">
            <stop offset="0.01" stop-color="#353d6c"></stop>
            <stop offset="1" stop-color="#575f8e"></stop>
        </linearGradient>
        <linearGradient id="svg-gradient__dark-middle" gradientUnits="userSpaceOnUse" x1="0%" y1="0%" x2="100%" y2="0%">
            <stop offset="0" stop-color="#373f6e"></stop>
            <stop offset="1" stop-color="#5a6291"></stop>
        </linearGradient>
        <linearGradient id="svg-gradient__dark-middle-2" gradientUnits="userSpaceOnUse" x1="0%" y1="0%" x2="100%" y2="0%">
            <stop offset="0.01" stop-color="#353d6c"></stop>
            <stop offset="1" stop-color="#575f8e"></stop>
        </linearGradient>
        <linearGradient id="svg-gradient__blue-middle" gradientUnits="userSpaceOnUse" x1="2.398682e-02" y1="191.1406" x2="181.9869" y2="191.1406">
            <stop offset="0" style="stop-color:#1D53DA"></stop>
            <stop offset="1" style="stop-color:#3F75FC"></stop>
        </linearGradient>
        <linearGradient id="svg-gradient__blue-top-dark" gradientUnits="userSpaceOnUse" x1="5.257527e-03" y1="150.01" x2="182.0152" y2="150.01">
            <stop offset="0" style="stop-color:#0B3EBF"></stop>
            <stop offset="1" style="stop-color:#2E5FDB"></stop>
        </linearGradient>
        <linearGradient id="svg-gradient__blue-top-light" gradientUnits="userSpaceOnUse" x1="44.2653" y1="111.2336" x2="137.7526" y2="17.7463">
            <stop offset="0" style="stop-color:#0397F6"></stop>
            <stop offset="1" style="stop-color:#00BAFF"></stop>
        </linearGradient>
        <linearGradient id="svg-gradient__dark-middle-st13" x1="41.6745" y1="427.5834" x2="116.026" y2="427.5834" xlink:href="#svg-gradient__dark-middle-2"></linearGradient>
        <linearGradient id="svg-gradient__dark-middle-st14" x1="126.6745" y1="427.4069" x2="201.126" y2="427.4069" xlink:href="#svg-gradient__dark-middle-2"></linearGradient>
        <linearGradient id="svg-gradient__blue-middle-st16" x1="84.175" y1="452.1069" x2="158.626" y2="452.1069" xlink:href="#svg-gradient__blue-middle"></linearGradient>
        <linearGradient id="svg-gradient__blue-top-light-st17" x1="84.0969" y1="439" x2="158.3339" y2="439" xlink:href="#svg-gradient__blue-top-light"></linearGradient>
        <linearGradient id="svg-gradient__compute-st12" gradientUnits="userSpaceOnUse" x1="84.075" y1="402.3569" x2="158.426" y2="402.3569" gradientTransform="matrix(1 0 0 1 0 -356)">
            <stop offset="0" style="stop-color:#373F6E"></stop>
            <stop offset="0.46" style="stop-color:#373F6E"></stop>
            <stop offset="1" style="stop-color:#5A6291"></stop>
        </linearGradient>
        <linearGradient id="high-frequency-gradient" gradientUnits="userSpaceOnUse" x1="37.25" y1="160.9" x2="37.25" y2="148.9" gradientTransform="matrix(1 0 0 -1 0 246)">
            <stop offset="0" style="stop-color:#00BAFF"></stop>
            <stop offset="1" style="stop-color:#00BAFF;stop-opacity:0"></stop>
        </linearGradient>
        <linearGradient id="high-frequency-gradient-1" gradientUnits="userSpaceOnUse" x1="53.25" y1="130.9" x2="53.25" y2="118.9" gradientTransform="matrix(1 0 0 -1 0 246)">
            <stop offset="0" style="stop-color:#01B2FD"></stop>
            <stop offset="1" style="stop-color:#00BAFF;stop-opacity:0"></stop>
        </linearGradient>
        <linearGradient id="high-frequency-gradient-2" gradientUnits="userSpaceOnUse" x1="113.25" y1="99.9" x2="113.25" y2="84.9" gradientTransform="matrix(1 0 0 -1 0 246)">
            <stop offset="0" style="stop-color:#01B2FD"></stop>
            <stop offset="1" style="stop-color:#00BAFF;stop-opacity:0"></stop>
        </linearGradient>
        <linearGradient id="high-frequency-gradient-3" gradientUnits="userSpaceOnUse" x1="83.25" y1="124.9" x2="83.25" y2="110.9" gradientTransform="matrix(1 0 0 -1 0 246)">
            <stop offset="0.1" style="stop-color:#01B2FD"></stop>
            <stop offset="1" style="stop-color:#00BAFF;stop-opacity:0"></stop>
        </linearGradient>
        <linearGradient id="high-frequency-gradient-4" gradientUnits="userSpaceOnUse" x1="135.25" y1="119.9" x2="135.25" y2="107.9" gradientTransform="matrix(1 0 0 -1 0 246)">
            <stop offset="0.1" style="stop-color:#01B2FD"></stop>
            <stop offset="1" style="stop-color:#00BAFF;stop-opacity:0"></stop>
        </linearGradient>
        <linearGradient id="high-frequency-gradient-5" gradientUnits="userSpaceOnUse" x1="170.25" y1="140.9" x2="170.25" y2="128.9" gradientTransform="matrix(1 0 0 -1 0 246)">
            <stop offset="0.1" style="stop-color:#01B2FD"></stop>
            <stop offset="1" style="stop-color:#00BAFF;stop-opacity:0"></stop>
        </linearGradient>
        <linearGradient id="high-frequency-gradient-6" gradientUnits="userSpaceOnUse" x1="202.25" y1="143.9" x2="202.25" y2="131.9" gradientTransform="matrix(1 0 0 -1 0 246)">
            <stop offset="0" style="stop-color:#01B2FD"></stop>
            <stop offset="1" style="stop-color:#00BAFF;stop-opacity:0"></stop>
        </linearGradient>
        <linearGradient id="high-frequency-gradient-7" gradientUnits="userSpaceOnUse" x1="167.25" y1="111.9" x2="167.25" y2="99.9" gradientTransform="matrix(1 0 0 -1 0 246)">
            <stop offset="0" style="stop-color:#01B2FD"></stop>
            <stop offset="1" style="stop-color:#00BAFF;stop-opacity:0"></stop>
        </linearGradient>
        <linearGradient id="high-frequency-gradient-8" gradientUnits="userSpaceOnUse" x1="121.1849" y1="166.8417" x2="121.1849" y2="67.9156">
            <stop offset="0" style="stop-color:#17BDFF"></stop>
            <stop offset="0.8" style="stop-color:#17BDFF;stop-opacity:0"></stop>
        </linearGradient>
    
</svg>