<svg class="svg-product" version="1.1"
    xmlns="http://www.w3.org/2000/svg" viewBox="0 0 244 243.1" xml:space="preserve">
    <g class="svg-illustration-shadow">
        <path id="shadow" class="dedicated-cls-1" d="M122.26,117.29a9.07,9.07,0,0,0-4.3,1c-1.1.6-102.3,58.7-103.4,59.3a3,3,0,0,0-1.8,2.5h0a3.13,3.13,0,0,0,1.8,2.5c1.1.6,102.3,58.7,103.4,59.3a9.33,9.33,0,0,0,8.6,0c1.1-.6,102.3-58.7,103.4-59.3a3,3,0,0,0,1.8-2.5h0a3.13,3.13,0,0,0-1.8-2.5c-1.1-.6-102.3-58.7-103.4-59.3a10.43,10.43,0,0,0-4.3-1"></path>
    </g>
    <g class="svg-illustration-bottom">
        <path class="dedicated-cls-2" d="M231.26,107.69h0v29.2a3.13,3.13,0,0,1-1.8,2.5c-1.1.6-102.3,58.7-103.4,59.3a9.33,9.33,0,0,1-8.6,0c-1.1-.6-102.3-58.7-103.4-59.3a3,3,0,0,1-1.8-2.5v-29.1h0v-.5h.1a3.39,3.39,0,0,1,1.7-2c1.1-.6,102.3-59.6,103.4-60.2a9.33,9.33,0,0,1,8.6,0c1.1.6,102.3,59.6,103.4,60.2a3.39,3.39,0,0,1,1.7,2h.1Z"></path>
        <path class="dedicated-cls-3" d="M231.35,107.66h0v29.2a3.13,3.13,0,0,1-1.8,2.5c-1.1.6-102.3,58.7-103.4,59.3a9.33,9.33,0,0,1-8.6,0c-1.1-.6-102.3-58.7-103.4-59.3a3,3,0,0,1-1.8-2.5v-29.1h0v-.5h.1a3.39,3.39,0,0,1,1.7-2c1.1-.6,102.3-59.6,103.4-60.2a9.33,9.33,0,0,1,8.6,0c1.1.6,102.3,59.6,103.4,60.2a3.39,3.39,0,0,1,1.7,2h.1Z"></path>
        <path class="dedicated-cls-4" d="M229.46,109.89c-1.1.6-102.3,59.1-103.4,59.8a9.33,9.33,0,0,1-8.6,0c-1.1-.6-102.3-59.1-103.4-59.8a2.7,2.7,0,0,1-1.7-3.3,2.86,2.86,0,0,1,1.7-1.7c1.1-.6,102.3-59.1,103.4-59.8a9.33,9.33,0,0,1,8.6,0c1.1.6,102.3,59.1,103.4,59.8a2.56,2.56,0,0,1,1.6,3.3A2.68,2.68,0,0,1,229.46,109.89Zm-7.2-5.2c-1-.6-96-55.9-97.1-56.5a8.9,8.9,0,0,0-8.1,0c-1,.6-96,55.9-97.1,56.5a2.5,2.5,0,0,0,0,4.7c1,.6,96.1,55.9,97.1,56.5a8.9,8.9,0,0,0,8.1,0c1-.6,96.1-55.9,97.1-56.5a2.45,2.45,0,0,0,1.5-3.2A3.11,3.11,0,0,0,222.26,104.69Z"></path>
        <path class="dedicated-cls-5" d="M117.16,165.69c-.8-.4-50.8-29.5-78.8-45.7,30.3-17.5,78.3-45.2,79-45.7a9.33,9.33,0,0,1,8.6,0c.8.4,48.1,27.8,78.5,45.4-27.9,16.2-78.5,45.6-79.3,46A8.69,8.69,0,0,1,117.16,165.69Z"></path>
        <g>
            <path class="dedicated-cls-6" d="M25.24,127.57l5.35,3.21"></path>
            <path class="dedicated-cls-7" d="M25.24,132.92l5.35,3.21"></path>
            <path class="dedicated-cls-7" d="M34.87,132.92l5.34,3.21"></path>
            <path class="dedicated-cls-6" d="M34.87,138.26l5.34,3.21"></path>
        </g>
        <g>
            <path class="dedicated-cls-8" d="M210.23,132.26v7"></path>
            <path class="dedicated-cls-8" d="M214.25,129.75v7"></path>
            <path class="dedicated-cls-8" d="M218.27,127.24v7.54"></path>
            <path class="dedicated-cls-8" d="M222.29,125.23v7"></path>
        </g>
        <path class="dedicated-cls-9" d="M69.79,156.58l38.63,22.15"></path>
    </g>
    <g class="svg-illustration-top">
        <g id="block">
            <path class="dedicated-cls-10" d="M231,64.3,56,36.6V66.2l112.2,64.6,59.9-34.2c2-1.1,2.9-2.6,2.9-4.1V64.3Z"></path>
            <path class="dedicated-cls-11" d="M169.2,100.9l9.4-5.4,50.3-29.3c1.2-.7,2-1,2.1-2.4,0-.6-.1-1.8-2.1-2.9L125.6,1A7.59,7.59,0,0,0,122-.1,5.32,5.32,0,0,0,118.2,1L65.4,31.2,56,36.6Z"></path>
        </g>
        <g id="main">
            <path class="dedicated-cls-12" d="M18.24,59.64l38-23.14,113,64.4v29.33l-31.77,18.84Z"></path>
            <path class="dedicated-cls-13" d="M12,65V93.5c0,1.5,1,3,2.9,4.1l100.9,57.5c3.3,1.8,7.29,2.15,10.09.65l12.11-7V120.37Z"></path>
            <path class="dedicated-cls-14" d="M26.4,55,15.1,61.4c-4.7,2.8-2.7,5-2.1,5.3l102.9,59.5c2.5,1.5,5.4,2.7,8.5,1.1l13.6-6.93Z"></path>
            <path class="dedicated-cls-15" d="M69.8,120.7l-7.5-4.4a6.92,6.92,0,0,1-3.1-5.4c0-2,1.4-2.8,3.1-1.8l.7.4v-.4c0-2,1.4-2.8,3.1-1.8a6.92,6.92,0,0,1,3.1,5.4v.4l.7.4a6.92,6.92,0,0,1,3.1,5.4C72.9,120.9,71.5,121.7,69.8,120.7Z"></path>
        </g>
    </g>
    <defs>
        <style>
		.dedicated-cls-1 {
			opacity: 0.08;
			fill: url(#dedicated-gradient_17);
		}

		.dedicated-cls-1,
		.dedicated-cls-6,
		.dedicated-cls-7,
		.dedicated-cls-8,
		.dedicated-cls-9 {
			isolation: isolate;
		}

		.dedicated-cls-2 {
			fill: url(#dedicated-gradient);
		}

		.dedicated-cls-3 {
			fill: url(#dedicated-gradient_2);
		}

		.dedicated-cls-15,
		.dedicated-cls-4 {
			fill: #fff;
		}

		.dedicated-cls-4 {
			fill-opacity: 0.5;
		}

		.dedicated-cls-5 {
			fill: #333c5e;
		}

		.dedicated-cls-6,
		.dedicated-cls-7,
		.dedicated-cls-8,
		.dedicated-cls-9 {
			fill: none;
			stroke: #142149;
			stroke-linecap: round;
			stroke-linejoin: round;
		}

		.dedicated-cls-6,
		.dedicated-cls-7 {
			stroke-width: 2.14px;
		}

		.dedicated-cls-6,
		.dedicated-cls-8,
		.dedicated-cls-9 {
			opacity: 0.32;
		}

		.dedicated-cls-7 {
			opacity: 0.48;
		}

		.dedicated-cls-8 {
			stroke-width: 2.01px;
		}

		.dedicated-cls-9 {
			stroke-width: 2.06px;
		}

		.dedicated-cls-10 {
			fill: url(#dedicated-gradient_3);
		}

		.dedicated-cls-11 {
			fill: url(#dedicated-gradient_4);
		}

		.dedicated-cls-12 {
			fill-rule: evenodd;
			opacity: 0.8;
			fill: url(#dedicated-gradient_16);
		}

		.dedicated-cls-13 {
			fill: url(#dedicated-gradient_5);
		}

		.dedicated-cls-14 {
			fill: url(#dedicated-gradient_6);
		}

		</style>
        <linearGradient id="dedicated-gradient_17" x1="122.26" y1="-395.29" x2="122.26" y2="-520.94" gradientTransform="matrix(1, 0, 0, -1, 0, -278)" gradientUnits="userSpaceOnUse">
            <stop offset="0" stop-color="#13151e" stop-opacity="0"></stop>
            <stop offset="1" stop-color="#131532"></stop>
        </linearGradient>
        <linearGradient id="dedicated-gradient" x1="12.26" y1="477.89" x2="231.26" y2="477.89" gradientTransform="translate(0 -356)" gradientUnits="userSpaceOnUse">
            <stop offset="0.48" stop-color="#d2d8e6"></stop>
            <stop offset="0.52" stop-color="#e0e4ef"></stop>
        </linearGradient>
        <linearGradient id="dedicated-gradient_2" x1="12.35" y1="477.86" x2="231.35" y2="477.86" gradientTransform="translate(0 -356)" gradientUnits="userSpaceOnUse">
            <stop offset="0" stop-color="#bbc1d4" stop-opacity="0"></stop>
            <stop offset="0.35" stop-color="#bbc1d4" stop-opacity="0.7"></stop>
            <stop offset="1" stop-color="#bbc1d4" stop-opacity="0"></stop>
        </linearGradient>
        <linearGradient id="dedicated-gradient_3" x1="56" y1="160.3" x2="231" y2="160.3" gradientTransform="matrix(1, 0, 0, -1, 0, 244)" gradientUnits="userSpaceOnUse">
            <stop offset="0.01" stop-color="#353d6c"></stop>
            <stop offset="1" stop-color="#575f8e"></stop>
        </linearGradient>
        <linearGradient id="dedicated-gradient_4" x1="56" y1="193.61" x2="231" y2="193.61" gradientTransform="matrix(1, 0, 0, -1, 0, 244)" gradientUnits="userSpaceOnUse">
            <stop offset="0" stop-color="#5B6791"></stop>
            <stop offset="1" stop-color="#69759F"></stop>
        </linearGradient>
        <linearGradient id="dedicated-gradient_16" x1="102.58" y1="44.68" x2="85.78" y2="139.96" gradientUnits="userSpaceOnUse">
            <stop offset="0" stop-color="#17bdff"></stop>
            <stop offset="1" stop-color="#17bdff" stop-opacity="0"></stop>
        </linearGradient>
        <linearGradient id="dedicated-gradient_5" x1="12" y1="133.15" x2="138" y2="133.15" gradientTransform="matrix(1, 0, 0, -1, 0, 244)" gradientUnits="userSpaceOnUse">
            <stop offset="0" stop-color="#1d53da"></stop>
            <stop offset="1" stop-color="#3f75fc"></stop>
        </linearGradient>
        <linearGradient id="dedicated-gradient_6" x1="12.06" y1="152.47" x2="138" y2="152.47" gradientTransform="matrix(1, 0, 0, -1, 0, 244)" gradientUnits="userSpaceOnUse">
            <stop offset="0" stop-color="#0397f6"></stop>
            <stop offset="1" stop-color="#00baff"></stop>
        </linearGradient>
    </defs>
</svg>