<?xml version="1.0" standalone="no"?><!DOCTYPE svg PUBLIC "-//W3C//DTD SVG 1.1//EN" "http://www.w3.org/Graphics/SVG/1.1/DTD/svg11.dtd"><svg t="1563867020569" class="icon" viewBox="0 0 1024 1024" version="1.1" xmlns="http://www.w3.org/2000/svg" p-id="4013" xmlns:xlink="http://www.w3.org/1999/xlink" width="128" height="128"><defs><style type="text/css"></style></defs><path d="M972.8 943.261538c-3.938462-63.015385-5.907692-128-5.907692-191.015384 0-31.507692 0-63.015385 1.96923-96.492308 0-29.538462 3.938462-59.076923-7.876923-86.646154-25.6-63.015385-108.307692-74.830769-167.384615-74.830769-29.538462 0-61.046154 3.938462-92.553846 11.815385-21.661538 5.907692-43.323077 13.784615-61.046154 23.630769l19.692308 49.230769c3.938462 9.846154 5.907692 19.692308 7.876923 29.538462 39.384615-19.692308 78.769231-29.538462 120.123077-29.538462 63.015385 0 94.523077 25.6 94.523077 74.830769v23.63077h-43.323077c-80.738462 0-141.784615 11.815385-183.138462 35.446153-45.292308 21.661538-64.984615 63.015385-64.984615 124.061539 0 45.292308 13.784615 80.738462 41.353846 104.369231 27.569231 23.630769 63.015385 37.415385 106.338461 37.415384 37.415385 0 66.953846-5.907692 90.584616-15.753846 23.630769-9.846154 43.323077-27.569231 59.076923-49.230769h1.969231c1.969231 9.846154 3.938462 27.569231 7.876923 51.2 0 1.969231 70.892308 0 76.8 0 0-7.876923-1.969231-13.784615-1.969231-21.661539zM882.215385 787.692308c0 11.815385-1.969231 21.661538-5.907693 31.507692-1.969231 7.876923-5.907692 15.753846-11.815384 21.661538-19.692308 27.569231-51.2 41.353846-82.707693 45.292308-19.692308 3.938462-39.384615 1.969231-59.076923-1.969231-15.753846-1.969231-29.538462-9.846154-39.384615-23.630769-13.784615-21.661538-9.846154-55.138462 3.938461-74.830769 9.846154-11.815385 23.630769-19.692308 37.415385-25.6C762.092308 748.307692 807.384615 748.307692 846.769231 748.307692h33.476923v39.384616z m-293.415385-177.23077L368.246154 66.953846c-3.938462-9.846154-11.815385-17.723077-23.630769-17.723077H275.692308c-9.846154 0-21.661538 7.876923-25.6 17.723077L51.2 610.461538c-5.907692 9.846154 3.938462 23.630769 13.784615 23.63077h76.8c9.846154 0 21.661538-7.876923 25.6-19.692308L216.615385 472.615385h196.923077l57.107692 141.784615c3.938462 9.846154 13.784615 19.692308 25.6 19.692308h76.8c11.815385 0 19.692308-13.784615 15.753846-23.63077zM257.969231 364.307692L315.076923 216.615385l63.015385 147.692307h-120.123077z" p-id="4014"></path></svg>