<?xml version="1.0" standalone="no"?><!DOCTYPE svg PUBLIC "-//W3C//DTD SVG 1.1//EN" "http://www.w3.org/Graphics/SVG/1.1/DTD/svg11.dtd"><svg class="icon" width="128px" height="128.00px" viewBox="0 0 1024 1024" version="1.1" xmlns="http://www.w3.org/2000/svg"><path d="M866.436706 340.940666v-13.399761S876.766869 12.459626 512.01699 0v18.474227V0c-364.727224 12.459626-354.385735 327.552232-354.385735 327.552232v13.399761c-25.961329 278.642538 62.66059 487.397903 62.66059 487.397903 138.902172 185.082076 271.846378 195.140392 290.581125 195.604796h2.265387c18.734746-0.475731 151.678952-10.545374 290.649086-195.616123-0.011327 0.022654 88.610592-208.755365 62.649263-487.397903z m-108.26282 443.834521c-117.256405 158.860227-229.427017 167.502677-245.228087 167.910446h-1.902925c-15.857705-0.40777-127.994337-9.061546-245.228087-167.910446 0 0-74.757754-179.192071-52.862794-418.371577v-11.508163s-8.744392-270.487147 299.031017-281.168444v15.857706-15.857706c307.741427 10.681297 299.031016 281.168444 299.031016 281.168444v11.508163c21.928941 239.179505-52.84014 418.371576-52.84014 418.371577z" fill="#0066EB" /><path d="M473.879209 702.405734c0.543693-0.237866 1.132693-0.464404 1.733021-0.679616h-0.532366z" fill="#2456A6" /><path d="M911.121455 289.67497h-43.620017c-17.749303 0-33.980797 0.101942-48.943675 0.249193 0.679616-0.079289 1.302597-0.14725 1.959559-0.237866H205.634795l0.747577 0.124596q-23.843193-0.158577-47.697712-0.158577H111.757179C71.523915 289.663643 37.996195 320.971284 37.996195 360.083182v242.588912c0 32.417681 23.469404 60.37255 57.042432 68.188133l174.831202 37.458166 7.339852 1.585771 0.396443 0.101942-0.487058-0.101942 0.634308 0.14725H277.923278L381.202248 732.388124c18.983939 3.39808 37.979204 1.132693 53.678333-7.82691l27.932215-15.857705a2.197425 2.197425 0 0 0 0.260519-0.203885 1.902925 1.902925 0 0 1-0.260519 0.215212l0.498385-0.283174 10.341489-5.890005 0.271847-0.124596 10.126277-5.810716a52.681563 52.681563 0 0 1 51.424273 0l9.49197 5.267023a3.307464 3.307464 0 0 0 0.566346 0.215212h1.370559-1.336578c-0.169904-0.079289-0.396443-0.14725-0.555019-0.215212l0.396442 0.215212 10.953144 6.116544 1.313924 0.73625c-0.317154-0.249193-0.577674-0.487058-0.917481-0.747577l0.894827 0.724923 28.113446 15.608513a73.942215 73.942215 0 0 0 53.68966 7.826911l113.382594-24.579444h0.101942l53.406487-11.168355h-0.226539l122.829255-25.746118c33.539047-6.705544 57.053759-34.649086 57.053759-68.188133V360.083182c-1.076059-39.100571-34.626432-70.408212-74.88235-70.408212zM818.42184 289.96947c-136.670767 1.529136-160.95571 9.514623-198.221318 15.653821 37.378877-6.150524 61.595859-14.147339 198.221318-15.653821zM241.552498 702.167869h-0.067962l0.747578-1.733021h0.487058-0.430424z m676.614309-112.238574c0.067962 8.801027-5.24437 16.61661-16.899783 19.550286l-272.559976 53.734967c-6.377063 0.962789-13.77355 0-19.074554-2.922349l-47.754347-24.432193a102.293527 102.293527 0 0 0-92.280519 0l-47.720366 24.432193c-5.312331 2.922349-12.742799 3.907792-19.097208 2.922349l-272.525994-53.723641c-11.644087-1.970886-19.097208-10.749259-19.097209-19.550285v-212.040175c0-10.737932 10.602009-19.550285 24.398213-25.225079h758.21353c13.796204 5.663466 24.398212 14.47582 24.398213 25.225079z" fill="#00D929" /></svg>