<?xml version="1.0" standalone="no"?><!DOCTYPE svg PUBLIC "-//W3C//DTD SVG 1.1//EN" "http://www.w3.org/Graphics/SVG/1.1/DTD/svg11.dtd"><svg class="icon" width="128px" height="124.24px" viewBox="0 0 1055 1024" version="1.1" xmlns="http://www.w3.org/2000/svg"><path d="M989.717043 559.46165c0 15.844691-15.844691 31.689383-31.689383 31.689382s-31.689383-10.515113-31.689383-31.689382c0-147.787758-84.408992-285.060403-211.166524-348.439169a29.168636 29.168636 0 0 1-15.844691-26.359805c0-10.515113 5.329578-21.174269 15.844691-31.689383s21.174269-5.329578 31.689383 0c147.931801 79.223457 248.185485 237.526329 242.855907 406.488357zM255.963788 934.260623a462.204053 462.204053 0 0 0 274.545289 89.73857c95.068148 0 184.806719-31.689383 264.030176-84.408992 10.515113-5.329578 15.844691-15.844691 15.844692-31.689383s-10.515113-21.174269-21.17427-26.359805-21.174269-5.329578-31.689383 5.329578c-68.564301 47.534074-147.787758 68.564301-227.011215 68.564301-84.408992 0-163.63245-26.359805-232.340793-73.893879-15.844691-10.515113-37.018961-5.329578-47.534074 5.329578-10.515113 15.844691-5.329578 36.874918 5.329578 47.390032zM314.012975 152.973293c-153.117336 79.223457-248.185485 237.526329-248.185484 406.488357 0 15.844691 15.844691 31.689383 31.689383 31.689382s37.018961-10.515113 37.01896-31.689382c0-147.787758 84.408992-279.874867 211.166524-348.439169a29.168636 29.168636 0 0 0 15.844692-26.359805c0-10.515113-5.329578-21.174269-15.844692-31.689383-5.329578-5.329578-21.174269-5.329578-31.689383 0z" fill="#0066EB" /><path d="M923.889552 892.056127c-73.893879 0-131.943067-58.049188-131.943067-131.943067s58.049188-131.943067 131.943067-131.943067 131.943067 58.049188 131.943067 131.943067-58.049188 131.943067-131.943067 131.943067z m-791.946485 0C58.049188 892.056127 0 834.006939 0 760.11306s58.049188-131.943067 131.943067-131.943067 131.943067 58.049188 131.943066 131.943067-58.049188 131.943067-131.943066 131.943067z m395.973242-628.169994c-73.893879 0-131.943067-58.049188-131.943066-131.943066S454.02243 0 527.916309 0s131.943067 58.049188 131.943067 131.943067-58.049188 131.943067-131.943067 131.943066z" fill="#00D929" /></svg>