<?xml version="1.0" standalone="no"?><!DOCTYPE svg PUBLIC "-//W3C//DTD SVG 1.1//EN" "http://www.w3.org/Graphics/SVG/1.1/DTD/svg11.dtd"><svg class="icon" width="128px" height="121.59px" viewBox="0 0 1078 1024" version="1.1" xmlns="http://www.w3.org/2000/svg"><path d="M544.7943 317.999684c-87.513613 0-159.006057-71.492444-159.006057-159.006056S457.280687 0 544.7943 0s158.993628 71.492444 158.993628 159.006057-71.480015 158.993628-158.993628 158.993627z m0-246.50724a87.513613 87.513613 0 1 0 87.513613 87.513613 87.8492 87.8492 0 0 0-87.513613-87.513613zM544.7943 1024c-87.513613 0-159.006057-71.492444-159.006057-159.006057S457.280687 705.975457 544.7943 705.975457s159.006057 71.492444 159.006057 159.006057-71.492444 159.018486-159.006057 159.018486z m0-246.50724a87.513613 87.513613 0 1 0 87.513613 87.513612 87.8492 87.8492 0 0 0-87.513613-87.526041zM919.495746 1024c-87.513613 0-159.006057-71.492444-159.006057-159.006057S831.982133 705.975457 919.495746 705.975457s159.006057 71.492444 159.006056 159.006057-71.504873 159.018486-159.006056 159.018486z m0-246.50724a87.513613 87.513613 0 1 0 87.513612 87.513612c-1.242915-48.075934-40.680593-87.526042-87.513612-87.526041zM159.006057 1024C71.492444 1024 0 952.507556 0 864.993943S71.492444 705.975457 159.006057 705.975457s159.006057 71.492444 159.006057 159.006057-71.504873 159.018486-159.006057 159.018486z m0-246.50724a87.513613 87.513613 0 1 0 87.513612 87.513612c-1.242915-48.075934-39.450107-87.526042-87.513612-87.526041z" fill="#0066EB" /><path d="M951.214925 639.106655c-11.372668-102.702028-84.108027-182.633862-173.473582-182.633862H580.540522v-85.972399-0.932185a36.35525 36.35525 0 1 0-72.722929 0v86.904584H295.81366c-88.905677 0-163.045529 77.968029-173.709736 181.316373-0.174008 1.640647-0.323158 3.281294-0.410162 4.897083a36.35525 36.35525 0 1 0 72.387343 5.680119 14.343234 14.343234 0 0 0 0.807894-3.157002c8.252953-65.041718 52.202411-116.013643 102.142717-116.013643h210.785877v119.319795a36.35525 36.35525 0 0 0 72.660783 0v-119.319795h198.505881c51.034071 0 94.063772 50.959496 102.167575 115.926639v1.59093a35.472781 35.472781 0 1 0 70.112809-7.606637z" fill="#00D929" /></svg>