<?xml version="1.0" standalone="no"?><!DOCTYPE svg PUBLIC "-//W3C//DTD SVG 1.1//EN" "http://www.w3.org/Graphics/SVG/1.1/DTD/svg11.dtd"><svg class="icon" width="128px" height="122.38px" viewBox="0 0 1071 1024" version="1.1" xmlns="http://www.w3.org/2000/svg"><path d="M133.779571 380.562789a66.949032 66.949032 0 1 0 66.949033-66.949032 66.949032 66.949032 0 0 0-66.949033 66.949032zM487.009776 624.84447a60.919011 60.919011 0 1 0 60.919011-60.919011 60.919011 60.919011 0 0 0-60.919011 60.919011zM305.082199 274.74777a66.949032 66.949032 0 0 0 133.911231 0 66.949032 66.949032 0 1 0-133.911231 0zM305.082199 737.80862a66.949032 66.949032 0 1 0 66.949032-66.949033 66.949032 66.949032 0 0 0-66.949032 66.949033zM295.194544 506.284778a76.849853 76.849853 0 1 0 76.863019-76.863019 76.849853 76.849853 0 0 0-76.863019 76.863019zM133.779571 624.84447a72.017937 72.017937 0 0 0 144.035873 0 72.017937 72.017937 0 0 0-144.035873 0z" fill="#0066EB" /><path d="M697.152059 517.015055a60.050056 60.050056 0 1 0 60.050056-60.050056 60.050056 60.050056 0 0 0-60.050056 60.050056zM824.190646 395.163866a60.050056 60.050056 0 0 0 120.100112 0 60.050056 60.050056 0 0 0-120.100112 0zM824.190646 638.853078a60.050056 60.050056 0 1 0 60.050056-60.050056A60.050056 60.050056 0 0 0 824.190646 638.853078z" fill="#00D929" /><path d="M490.985903 371.188608a56.942884 56.942884 0 1 0 113.885769 0 56.942884 56.942884 0 1 0-113.885769 0zM0 506.284778a42.131151 42.131151 0 1 0 42.131151-42.131152 42.131151 42.131151 0 0 0-42.131151 42.131152z" fill="#0066EB" /><path d="M787.957855 753.528805v30.163271c0 23.172133-20.960248 51.505332-48.33233 63.736533l-127.051752 56.811224c-40.643395 18.169059-107.105286 50.702207-107.105286-22.92198v-738.611744c0-70.122035 66.448725-41.091038 107.105286-22.92198l127.051752 56.811224c27.372082 12.244366 48.33233 40.564399 48.33233 63.736533v30.163271h47.884687v-55.297136c0-21.592215-18.155893-48.59565-41.762504-60.721522l-269.902687-138.690483C474.739078-9.755995 430.317046-3.949795 430.317046 31.01906v961.946344c0 34.982021 44.422033 40.814553 93.899803 15.338372l269.902687-138.690483c23.606611-12.139038 41.762504-39.129307 41.762504-60.721522v-55.297136z" fill="#0066EB" /><path d="M951.321394 517.015055a60.050056 60.050056 0 1 0 60.050057-60.050056 60.050056 60.050056 0 0 0-60.050057 60.050056z" fill="#00D929" /></svg>