<?xml version="1.0" standalone="no"?><!DOCTYPE svg PUBLIC "-//W3C//DTD SVG 1.1//EN" "http://www.w3.org/Graphics/SVG/1.1/DTD/svg11.dtd"><svg class="icon" width="128px" height="106.91px" viewBox="0 0 1226 1024" version="1.1" xmlns="http://www.w3.org/2000/svg"><path d="M1188.815697 948.059014H75.940986V37.978257A37.96273 37.96273 0 0 0 37.978257 0 37.978257 37.978257 0 0 0 0 37.96273v948.059013a37.96273 37.96273 0 0 0 37.96273 37.96273h1150.83744a37.96273 37.96273 0 1 0 0-75.940986z" fill="#0066EB" /><path d="M271.002653 818.659672a97.305697 97.305697 0 0 0 59.405074-141.789632l153.357007-204.626101a97.38333 97.38333 0 0 0 91.452139-9.906021l98.640991 72.97539a97.305697 97.305697 0 1 0 180.109475-22.125517l193.633213-309.865931a97.228063 97.228063 0 1 0-64.171764-40.617792l-189.270216 302.770239a96.793316 96.793316 0 0 0-74.419372 9.316007l-103.656108-76.748374a97.259117 97.259117 0 1 0-189.844703 9.238374 98.609938 98.609938 0 0 0 3.415869 10.387348L270.164213 630.647117a97.24359 97.24359 0 1 0 0.853967 188.012555zM1057.910267 86.840715a21.302603 21.302603 0 1 1-15.060879 26.115874 21.31813 21.31813 0 0 1 15.060879-26.115874zM751.009932 546.539097c0.217374-0.27948 0.4658-0.543434 0.667647-0.83844l0.388167-0.558961a20.867856 20.867856 0 0 1 10.589195-6.614365 21.333657 21.333657 0 1 1-11.645009 7.99624zM514.631772 361.523191a21.31813 21.31813 0 0 1 24.112932 31.053358l-0.13974 0.2329a21.240497 21.240497 0 0 1-26.954314 8.850207 21.302603 21.302603 0 0 1 3.012175-40.089885zM240.197723 704.150415a21.31813 21.31813 0 1 1-15.060879 26.115874 21.31813 21.31813 0 0 1 15.060879-26.115874z" fill="#00D929" /></svg>