<?xml version="1.0" standalone="no"?><!DOCTYPE svg PUBLIC "-//W3C//DTD SVG 1.1//EN" "http://www.w3.org/Graphics/SVG/1.1/DTD/svg11.dtd"><svg class="icon" width="128px" height="112.41px" viewBox="0 0 1166 1024" version="1.1" xmlns="http://www.w3.org/2000/svg"><path d="M1127.713616 0.000083H39.54949A39.577147 39.577147 0 0 0 0 39.273003v712.029112a39.577147 39.577147 0 0 0 39.272921 39.549491h166.218487a39.978174 39.978174 0 0 0 30.83754-14.658203L457.446553 501.974384l100.948 83.385814a39.673947 39.673947 0 0 0 54.207693-3.595409L808.275424 370.603699a40.240915 40.240915 0 1 0-58.494526-52.963129L579.967002 500.45325 477.083013 415.546302a39.604804 39.604804 0 0 0-56.005397 5.669682L186.822942 711.752625H79.098981V78.960779h1008.926859v632.791846H542.906641a39.577147 39.577147 0 0 0-39.549491 39.27292v194.013759H271.315035a39.577147 39.577147 0 0 0-39.54949 39.272921v0.138285a39.577147 39.577147 0 0 0 39.272921 39.54949h531.428991a39.577147 39.577147 0 0 0 39.54949-39.272921v-0.138284a39.577147 39.577147 0 0 0-39.27292-39.549491H582.456131V790.851606h544.980915a39.577147 39.577147 0 0 0 39.54949-39.272921v-712.167397A39.18995 39.18995 0 0 0 1127.713616 0.000083z" fill="#0066EB" /><path d="M842.016947 147.41182a125.839288 125.839288 0 1 0 125.839288 125.839287 125.770145 125.770145 0 0 0-125.839288-125.839287z m0 172.717879a46.740307 46.740307 0 1 1 46.740307-46.740307 46.684993 46.684993 0 0 1-46.740307 46.740307z" fill="#00D929" /></svg>