<?xml version="1.0" standalone="no"?><!DOCTYPE svg PUBLIC "-//W3C//DTD SVG 1.1//EN" "http://www.w3.org/Graphics/SVG/1.1/DTD/svg11.dtd"><svg class="icon" width="128px" height="123.19px" viewBox="0 0 1064 1024" version="1.1" xmlns="http://www.w3.org/2000/svg"><path d="M1055.016116 969.458452L882.379243 796.704538a477.98761 477.98761 0 0 0 118.446451-315.779175C1000.825694 215.357184 785.468511 0 519.900331 0S39.092011 215.474226 39.092011 480.925363s215.357184 480.691279 480.80832 480.691279a477.800343 477.800343 0 0 0 316.715511-119.499829L1009.252715 1014.753686a32.19824 32.19824 0 0 0 45.763401-45.295234z m-535.115785-65.192364a415.615956 415.615956 0 0 1-164.560978-33.239914 420.672168 420.672168 0 0 1-134.364156-90.590467A427.203109 427.203109 0 0 1 130.38473 646.071551 421.409533 421.409533 0 0 1 97.144817 481.510573a415.615956 415.615956 0 0 1 33.239913-164.560979A420.672168 420.672168 0 0 1 220.975197 182.585438a428.537387 428.537387 0 0 1 134.364156-90.590467 421.409533 421.409533 0 0 1 164.560978-33.239913 415.615956 415.615956 0 0 1 164.560979 33.239913A420.672168 420.672168 0 0 1 818.825466 182.585438 427.203109 427.203109 0 0 1 909.415933 316.949594a420.999886 420.999886 0 0 1 32.771746 164.560979A415.615956 415.615956 0 0 1 908.947765 646.071551a420.672168 420.672168 0 0 1-90.590467 134.364156 427.203109 427.203109 0 0 1-134.364156 90.590467 417.839753 417.839753 0 0 1-164.092811 33.239914z" fill="#0066EB" /><path d="M26.685564 631.090182H79.588524a26.08865 26.08865 0 0 0 23.525432-13.693908l56.648303-99.368614 80.875985 198.971311a27.551674 27.551674 0 0 0 17.790376 16.502915c13.927992 4.21351 28.441193-4.447594 32.537662-19.546005L400.283461 322.09944l79.705566 285.699394c2.457881 13.459824 13.108698 23.40839 26.100355 23.40839h133.193736a22.050703 22.050703 0 0 0 6.671391-1.053378c9.129272 18.02446 26.45148 30.196822 46.582695 30.196823 29.494571 0 53.254086-26.100354 53.254086-58.403932s-23.876557-58.403932-53.254086-58.403932c-20.131215 0-37.453423 12.172363-46.582695 30.196822a26.205692 26.205692 0 0 0-6.671391-0.936335h-113.296605l-100.187907-358.967654c-4.21351-15.449537-19.194879-24.110641-33.239914-19.428963a29.65843 29.65843 0 0 0-18.02446 19.663047L260.769459 622.663162l-72.097839-177.318551a28.242222 28.242222 0 0 0-6.203224-10.299692l-0.468167-0.585209a24.578809 24.578809 0 0 0-29.143445-5.38393 27.937913 27.937913 0 0 0-12.874615 13.342782L65.777575 572.569208H26.568522C11.938279 572.569208 0 585.677906 0 601.712653c0 16.268831 11.938279 29.377529 26.685564 29.377529z" fill="#00D929" /></svg>